<?xml version="1.0" standalone="no"?>
<!DOCTYPE svg PUBLIC "-//W3C//DTD SVG 20010904//EN"
 "http://www.w3.org/TR/2001/REC-SVG-20010904/DTD/svg10.dtd">
<svg version="1.0" xmlns="http://www.w3.org/2000/svg"
 width="256.000000pt" height="256.000000pt" viewBox="0 0 256.000000 256.000000"
 preserveAspectRatio="xMidYMid meet">
<metadata>
Created by potrace 1.16, written by Peter Selinger 2001-2019
</metadata>
<g transform="translate(0.000000,256.000000) scale(0.100000,-0.100000)"
fill="#000000" stroke="none">
<path d="M0 1280 l0 -1280 366 0 365 0 -2 94 c-1 51 -5 117 -10 145 -4 28 -10
80 -13 116 l-5 65 49 25 c36 18 63 45 110 107 34 46 68 91 76 101 13 16 9 23
-44 72 -87 80 -113 123 -142 238 -25 96 -28 102 -51 99 -33 -3 -42 5 -74 68
-15 30 -42 78 -61 105 -38 57 -59 163 -45 226 19 83 41 79 63 -12 15 -64 78
-185 84 -163 2 5 19 122 39 261 39 274 42 288 104 412 35 68 45 81 59 75 9 -5
49 -10 87 -11 39 -2 95 -12 125 -23 46 -16 81 -19 220 -20 170 0 276 17 350
55 43 22 37 3 -12 -39 -47 -41 -38 -48 15 -12 29 20 35 21 31 8 -5 -14 -2 -13
10 2 15 19 16 19 16 -12 0 -19 23 -76 60 -146 58 -110 71 -152 85 -261 l7 -50
-39 37 c-67 65 -141 85 -322 89 -114 3 -137 -4 -124 -37 8 -22 35 -26 213 -34
179 -7 196 -10 241 -41 24 -17 26 -26 33 -116 3 -54 10 -114 14 -133 l8 -34
32 57 c18 32 40 86 48 120 21 82 33 96 56 67 14 -17 18 -39 18 -94 -1 -83 -15
-127 -63 -199 -19 -28 -45 -72 -58 -97 -20 -36 -30 -46 -55 -48 -30 -3 -31 -5
-53 -97 -27 -110 -56 -160 -144 -241 -37 -34 -57 -59 -49 -62 26 -8 75 -57
132 -131 32 -42 72 -89 89 -105 l31 -30 0 -198 0 -198 345 0 345 0 0 1280 0
1280 -1280 0 -1280 0 0 -1280z"/>
<path d="M969 1650 c-101 -10 -167 -33 -218 -76 -54 -46 -52 -59 3 -28 50 28
157 44 296 44 47 0 95 3 107 6 28 8 36 30 17 49 -17 16 -71 18 -205 5z"/>
<path d="M886 1485 c-21 -7 -44 -19 -50 -25 -6 -6 9 -4 33 5 24 8 52 15 63 15
18 0 18 -2 4 -22 -21 -29 -20 -57 2 -81 17 -20 16 -20 -18 -13 -19 3 -47 19
-63 34 -17 15 -28 20 -25 12 10 -32 69 -60 128 -60 54 0 58 2 75 34 17 32 15
73 -4 62 -5 -3 -14 1 -21 9 -11 13 -8 15 14 15 16 0 42 -14 68 -37 24 -22 37
-30 31 -18 -41 75 -140 105 -237 70z"/>
<path d="M1504 1481 c-23 -10 -49 -29 -58 -42 -26 -38 -19 -39 20 -3 44 42 69
46 52 8 -10 -21 -9 -31 7 -60 17 -31 22 -34 65 -34 59 0 107 16 120 40 13 25
12 40 -1 17 -6 -11 -26 -25 -45 -33 -46 -19 -61 -18 -41 4 21 22 22 62 3 62
-7 0 -19 7 -26 15 -18 22 27 29 78 12 23 -8 42 -11 42 -6 0 12 -97 39 -139 39
-20 0 -55 -9 -77 -19z"/>
<path d="M1485 107 c-14 -8 -75 -12 -195 -12 l-175 0 -58 -45 -57 -45 180 -3
c99 -1 261 -1 361 0 l181 3 -87 58 c-88 58 -114 66 -150 44z"/>
</g>
</svg>
